<svg xmlns="http://www.w3.org/2000/svg" viewBox="0 0 24 24"><title>画板 5</title><path d="M21,5H5.95a2,2,0,0,0-.31,0l-.37-2.1a1,1,0,0,0-.14-.35L5,2.5a1,1,0,0,0-.17-.17l-.12-.07a1,1,0,0,0-.2-.09l-.09,0A1,1,0,0,0,4,2H1A1,1,0,1,0,1,4H3.42l.53,3V7l.57,3.2,1.41,8a1,1,0,0,0,.14.35l.08.09a1,1,0,0,0,.17.17l.12.07a1,1,0,0,0,.2.09l.15,0,.13,0H20a1,1,0,0,0,0-2H7.76l-.18-1H20a2.11,2.11,0,0,0,2-2l1-7A2,2,0,0,0,21,5Zm-1,8.73a.75.75,0,0,1-.09.27H7.27a1.46,1.46,0,0,1-.1-.35L6.5,9.89,6,7H21Z"/><circle cx="8.5" cy="21.51" r="1.5"/><circle cx="18.5" cy="21.51" r="1.5"/></svg>